<svg version="1.1" viewBox="0 0 5092.6 3819.4" xmlns="http://www.w3.org/2000/svg">
 <defs>
  <clipPath id="clip-0">
   <path d="m0 0h5092.6v3819.4h-5092.6z"/>
  </clipPath>
 </defs>
 <g clip-path="url(#clip-0)">
  <path d="m0 3819.4h5092.6v-3819.4h-5092.6z" fill="#142532"/>
  <path d="m3752.3 3819.4h-3752.3v-476.35c40.645 1.6914 81.48 2.5508 122.54 2.5508 665.47 0 1278.9-222.49 1770.1-597.18 58.73 256.11 258.66 658.74 270.81 683.07-12.609 10.859-142.46 126.13-92.602 224.06 6.3398 12.469 16.391 19.789 29.84 21.762 2.5312 0.36719 5.1602 0.54688 7.8906 0.54688 92.621 0 292.27-208.26 300.96-217.38l0.55078-0.57031-109.29-695.07 359.99-235.57c-2.5312 19.801-14.52 122.02-9.1602 241.85 5.5078 122.81 30.898 289.78 120.61 387.75 81.488 88.98 236.49 110.04 364.92 110.04 13.109 0 25.949-0.21875 38.387-0.60938 136.62-4.2617 256.01-29.238 271.01-32.488 3.8984 18.148 42.43 183.86 147.43 187.61 0.60938 0.019531 1.2188 0.027343 1.8203 0.027343 18.031 0 30.641-9.4297 37.281-28.098 29.457-82.82-65.59-323.77-96.531-347.18-34.84-26.371-422.87-95.672-455.23-101.41 3.5-18.852 36.789-201.75 48.43-397.24 7.1797-120.69 4.832-222.52-6.9883-302.64-9.543-64.723-25.34-115.36-47.16-151.45 24.77-8.8594 27.98-118.99 23.117-246.1-0.61719-28.98-1.9492-62.191-4.668-92.652-5.3789-88.457-13-175.51-18.66-234.87-5.7109-59.941-103.84-64.84-165.08-64.84-6.5078 0-12.609 0.058593-18.129 0.10938-4.2109 0.039062-8.0273 0.070312-11.359 0.070312-5.8203 0-14.512 0.45703-25.391 1.3477 121.73-321.5 188.32-669.99 188.32-1034.1 0-144.15-10.441-285.85-30.609-424.4h2061.5c11.84 139.89 17.891 281.43 17.891 424.4 0 1312.7-508.94 2506.6-1340.3 3395m-1260.1-1686.3c16.277-22.543 32.207-45.262 47.859-68.281 5.7383 18.859 11.789 33.141 17.969 41.25-19.129 7.5703-41.34 16.609-65.828 27.031" fill="#172b3a"/>
 </g>
 <g>
  <path d="m122.54 3345.6c-41.059 0-81.895-0.85938-122.54-2.5508v-1574.5c40.359 3.6602 81.227 5.5117 122.54 5.5117 745.43 0 1349.7-604.27 1349.7-1349.7 0-148.25-23.91-290.94-68.078-424.4h1609c20.168 138.55 30.609 280.25 30.609 424.4 0 364.15-66.59 712.64-188.32 1034.1-78.211 6.3711-269.93 34.961-324.94 75.492-3.4609 2.5586-6.6602 6.3594-9.582 11.41-76 26.598-219.79 343.9-230.75 368.31-6.6406-0.26953-42.398-1.7109-94.281-3.2812v-32.648h-263.96l-60.582-404.06h-574.4l66.379 442.78h303.75c-30.852 4.3516-47.918 10.031-52.051 17.281-3.6992 6.4688-3.7695 12.871-0.19922 19.02 30.031 51.77 327.64 73.18 347.62 73.18 2.9805 0 15.551 9.0703 30.098 19.57 50.613 36.52 155.84 112.46 258.91 112.46h0.44141c23.84-0.070312 46.43-4.2227 67.168-12.332 64.113-25.098 135.55-94.879 197.76-192.7 6.582 44.18 14.531 83.25 23.211 111.8-15.652 23.02-31.582 45.738-47.859 68.281-95.102 40.488-224.73 101.89-343.41 179.05-188.97 122.87-280.13 239.82-270.95 347.59 2.2617 26.543 7.4336 56.48 14.82 88.723-491.18 374.69-1104.6 597.18-1770.1 597.18" fill="#1b3140"/>
  <path d="m122.54 1774.1c-41.312 0-82.18-1.8516-122.54-5.5117v-1768.6h1404.2c44.168 133.46 68.078 276.15 68.078 424.4 0 745.43-604.3 1349.7-1349.7 1349.7m-122.54-1774.1v1346.3c52.359 9.5117 106.31 14.48 161.4 14.48 495.7 0 897.54-401.81 897.54-897.5 0-169.52-46.98-328.03-128.65-463.27h-930.29" fill="#1e3746"/>
  <path d="m161.4 1360.8c-55.094 0-109.04-4.9688-161.4-14.48v-1346.3h930.29c81.672 135.24 128.65 293.75 128.65 463.27 0 495.69-401.84 897.5-897.54 897.5" fill="#213c4b"/>
  <path d="m4425.2 2667.1c63.859 144.63-1.6211 313.65-146.25 377.51-144.64 63.859-313.66-1.6211-377.52-146.25-63.863-144.63 1.6172-313.65 146.25-377.51 144.63-63.867 313.65 1.6094 377.52 146.25" fill="#5d959d"/>
  <path d="m3781.9 3094.2c-46.32 0.007812-85.98-9.4922-98.82-38.582-29.258-66.258 105.91-165.4 189.09-218.6l13.723 21.457c-141.15 90.273-191.87 158.89-179.52 186.85 8.6562 19.621 57.199 33.602 167.42 13.988 101.78-18.109 229.57-59.75 359.82-117.27 130.26-57.508 247.12-123.89 329.07-186.91 88.75-68.238 111.12-113.52 102.46-133.14-12.551-28.422-99.152-36.902-264.38 8.2266l-6.707-24.559c78.277-21.379 263.64-63.59 294.38 6.0508 21.488 48.648-48.082 115.82-110.22 163.61-83.523 64.219-202.25 131.71-334.31 190.02-132.07 58.312-261.92 100.58-365.65 119.04-31.031 5.5234-65.199 9.8125-96.352 9.8125" fill="#ecf8e9"/>
  <path d="m2618 1695c0 103.15-146.41 389.29-299.47 449.19-21.711 8.5-44.121 12.16-66.59 12.219-135.94 0.28906-275.16-132.02-289.45-132.02-16.609 0-382.96-25.238-346.04-89.82 4.6094-8.0781 27.879-13.938 63.238-18.078 168.6-19.859 611.53-1.1523 611.53-1.1523s167.06-373.41 240.27-370.1c73.211 3.3398 86.508 46.598 86.508 149.76" fill="#ecf8e9"/>
  <path d="m1923.6 1909c-94.457 0-185.71 2.2422-243.73 9.0703-46.223 5.4102-59.25 12.391-62.051 17.289-3.1406 5.4922-3.2109 10.672-0.21094 15.84 29.379 50.652 325.01 71.602 344.87 71.602 3.8477 0 12.578 6.1797 31.961 20.172 50.34 36.316 155.01 111.85 257.05 111.85h0.44141c23.43-0.058594 45.641-4.1406 66.012-12.109 66.988-26.219 142.2-101.93 206.35-207.72 54.23-89.441 92.109-188.13 92.109-239.99 0-101.75-11.809-144.83-84.988-148.17-0.3125-0.011719-0.62891-0.019532-0.94141-0.019532-71.801 0-236.15 365.48-237.81 369.19l-0.44141 0.98047-1.0781-0.039062c-2.8906-0.12891-190.85-7.9414-367.54-7.9414m327.89 249.01c-103.07 0-208.3-75.941-258.91-112.46-14.547-10.5-27.117-19.57-30.098-19.57-19.98 0-317.59-21.41-347.62-73.18-3.5703-6.1484-3.5-12.551 0.19922-19.02 4.6602-8.1719 25.742-14.34 64.441-18.871 162.75-19.168 586.16-2.1992 610.7-1.1992 11.449-25.48 167.6-370.08 240.33-370.08 0.34766 0 0.67969 0.007813 1.0195 0.019531 75.32 3.4375 88.027 49.469 88.027 151.35 0 53.223-37.199 150.33-92.57 241.64-64.5 106.38-140.28 182.57-207.91 209.04-20.738 8.1094-43.328 12.262-67.168 12.332h-0.44141" fill="#142532"/>
  <path d="m2501.5 420.63 79.859 389.31s202.97-83.191 399.29 49.91c196.32 133.09 465.84-73.211 465.84-73.211l-33.281-492.45s-259.53 276.17-475.82 116.46c-216.28-159.72-435.89 9.9805-435.89 9.9805" fill="#ef353b"/>
  <path d="m2462.2 2023.9c-68.141-102.89 22.711-308.38 36.629-338.44-1.7695 81.621 5.3828 180.51 17.32 262.7-17.367 27.582-35.48 52.949-53.949 75.742" fill="#b2c1b0"/>
  <path d="m2463.1 2025.4c-0.32031-0.46094-0.64062-0.94141-0.94922-1.4102 18.469-22.793 36.582-48.16 53.949-75.742 0.082032 0.53906 0.16016 1.082 0.24219 1.6289-17.391 28.812-36.23 56.902-53.242 75.523" fill="#141e25"/>
  <path d="m3411.9 269.63 61.262 909.65h39.93l-51.281-909.65h-49.91" fill="#ecf8e9"/>
  <path d="m2615.3 2086c-239.69 87.211-756.8 328.29-735.9 573.63 20.898 245.34 286.02 772.34 286.02 772.34s-145.3 120.51-93.16 222.93c52.129 102.42 336.12-195.45 336.12-195.45l-109.32-695.31 363.75-238.04s-62.457 442.79 110.6 631.76c173.05 188.96 674.37 76.121 674.37 76.121s35.711 183.97 146.25 187.91c110.54 3.9414-22.742-345.36-58.441-372.38-35.688-27.012-456.12-101.4-456.12-101.4s145.31-763.76-46.43-897.7l-417.74 35.59" fill="#ecf8e9"/>
  <path d="m2615.7 2087.5c-61.891 22.531-277.29 105.13-465.15 227.28-85.73 55.738-152.15 111.23-197.42 164.94-52.672 62.477-76.93 122.94-72.102 179.71 20.641 242.23 283.22 766.48 285.87 771.75l0.57031 1.1328-0.98047 0.80859c-1.4414 1.1992-143.73 120.88-92.762 220.99 5.8516 11.492 15.09 18.242 27.461 20.051 84.918 12.43 293.34-202.62 305.55-215.31l-109.37-695.55 367.56-240.52-0.48828 3.4688c-0.14844 1.1094-15.531 112.14-9.582 244.78 5.4805 122.27 30.711 288.43 119.77 385.68 88.977 97.172 267.04 112.6 400.81 108.41 145.14-4.5195 270.8-32.48 272.05-32.762l1.5977-0.35938 0.3125 1.6094c0.34766 1.832 36.738 182.77 144.74 186.62 17.551 0.67188 29.641-8.0977 35.992-25.949 12.379-34.789 2.8789-105.51-26.051-194.03-25.199-77.109-56.23-139.57-69.402-149.54-34.977-26.48-451.24-100.36-455.44-101.1l-1.5898-0.27734 0.30078-1.582c0.36719-1.9102 36.457-193.25 48.668-398.45 16.102-270.59-16.391-442.53-93.969-497.32l-416.95 35.52m-507.08 1590.4c-2.7305 0-5.3594-0.17969-7.8906-0.54688-13.449-1.9727-23.5-9.293-29.84-21.762-49.859-97.93 79.992-213.2 92.602-224.06-13.68-27.391-265.4-534.36-285.63-771.79-9.1797-107.77 81.98-224.72 270.95-347.59 188.36-122.47 404.3-205.23 466-227.67l0.41016-0.089844 418.31-35.641 0.46875 0.32812c44.109 30.812 73.992 97.371 88.812 197.84 11.82 80.117 14.168 181.95 6.9883 302.64-11.641 195.49-44.93 378.39-48.43 397.24 32.359 5.7383 420.39 75.039 455.23 101.41 30.941 23.41 125.99 264.36 96.531 347.18-6.8633 19.301-20.09 28.719-39.102 28.07-105-3.75-143.53-169.46-147.43-187.61-15 3.25-134.39 28.227-271.01 32.488-134.42 4.2109-313.5-11.379-403.31-109.43-89.711-97.969-115.1-264.94-120.61-387.75-5.3594-119.83 6.6289-222.05 9.1602-241.85l-359.99 235.57 109.29 695.07-0.55078 0.57031c-8.6914 9.1211-208.34 217.38-300.96 217.38" fill="#142532"/>
  <path d="m2531.5 1535.3c-62.539 46.082-19.961 519.08 29.949 572.32 49.91 53.23 459.18-3.3281 512.42-13.309 53.242-9.9922 6.6523-502.44 0-572.32-6.6562-69.871-146.41-63.219-192.99-63.219-46.59 0-286.16 29.949-349.38 76.527" fill="#ecf8e9"/>
  <path d="m2908.8 1460.2c-6.0312 0-11.59 0.050781-16.52 0.089843-4.2188 0.039063-8.0508 0.070313-11.391 0.070313-47.398 0-286.28 30.43-348.44 76.219-13.297 9.8008-22.758 41.531-27.359 91.75-13.969 152.61 20.441 438.63 57.531 478.2 50.281 53.633 467.58-5.6602 510.97-13.789 38.422-7.2109 24.52-299.48-1.3008-570.6-5.457-57.398-105.88-61.938-163.49-61.938m-217.68 671.38c-64.109 0-115.01-6-130.83-22.879-38.348-40.91-72.719-323.92-58.367-480.66 4.75-51.879 14.391-83.512 28.641-94.02l0.94922 1.2773-0.94922-1.2773c62.668-46.172 302.73-76.84 350.33-76.84 3.332 0 7.1484-0.03125 11.359-0.070312 57.449-0.53125 176.9-1.582 183.21 64.73 16.141 169.5 48.328 564.72-1.2891 574.03-30.09 5.6406-239.6 35.699-383.05 35.711" fill="#142532"/>
  <path d="m3098.7 1849.4c-1.1602-30.312-2.7695-61.551-4.668-92.652 2.7188 30.461 4.0508 63.672 4.668 92.652" fill="#15222b"/>
  <path d="m3097.2 1926.3c-181.28-150.4-112.68-331.6-112.68-331.6l99.641 96.32c1.1797 4.6094 2.2695 9.6289 3.2812 14.969 5.5898 80.809 9.2305 157.15 9.7578 220.31" fill="#b2c1b0"/>
  <path d="m3099 1927.7c-0.58203-0.48047-1.1602-0.96094-1.7422-1.4414-0.52734-63.16-4.168-139.5-9.7578-220.31 2.8008 14.879 4.9492 32.301 6.5898 50.738 1.8984 31.102 3.5078 62.34 4.668 92.652 0.95312 44.059 0.24219 78.359 0.24219 78.359" fill="#141e25"/>
  <path d="m2940.7 1398.9s46.578 36.598 16.641 99.82c-29.949 63.219-292.81 96.5-346.05 59.891-53.242-36.602-59.898-73.203-59.898-73.203s342.73-23.289 389.31-86.508" fill="#142532"/>
  <path d="m2518.1 1056.2c92.703-131.23 419.25-139.75 472.49 126.45 41.98 209.88-113.13 415.92-389.31 352.7-212.49-48.637-171.11-365.31-83.18-479.15" fill="#ecf8e9"/>
  <path d="m2723.8 968.67c-84.27 0-165.58 33.5-204.37 88.406l-0.039063 0.0625c-58.199 75.328-94.559 238.77-53.691 352.85 23.66 66.023 70.672 108.82 135.97 123.77 123.74 28.328 232.89 4.0469 307.33-68.371 71.582-69.629 101.51-175.22 80.059-282.47-21.887-109.47-95.398-185.17-201.69-207.69-20.949-4.4414-42.359-6.5586-63.57-6.5586zm-24.641 579.81c-31.379 0-64.238-3.8398-98.199-11.621-66.41-15.199-114.22-58.699-138.25-125.8-41.211-115.03-4.5508-279.84 54.141-355.84 49.25-69.699 165.83-105.43 271.18-83.098 107.59 22.789 182 99.398 204.15 210.17 21.66 108.32-8.5977 215-80.961 285.39-54.777 53.281-128.08 80.789-212.06 80.801" fill="#142532"/>
  <path d="m3052.8 1486.3s-170.89 137.63 17.68 275.24c123.11 89.844 249.56 89.844 359.36 53.23 109.8-36.598 129.77-369.34 116.46-472.49 83.18-89.84 36.809-229.59-69.879-229.59-87.602 0-63.223 78.191-63.223 78.191s-47.5-16.41-32.559 55.258c9.6289 46.23 49.199 72.852 49.199 72.852l-86.508 322.76s-205.05-127.89-290.53-155.45" fill="#ecf8e9"/>
  <path d="m3053.2 1488.1c-7.2422 6.1094-71.453 62.531-69.691 135.84 1.168 48.723 30.758 94.582 87.961 136.32 107.56 78.492 227.98 96.332 357.91 53.012 108.98-36.32 128.7-367.6 115.39-470.77l-0.089843-0.74219 0.5-0.55078c41.66-44.988 53.832-107.8 31.023-160.02-18.312-41.891-55.594-66.898-99.73-66.898-26.312 0-44.902 7.1406-55.262 21.199-16.34 22.199-6.5391 54.609-6.4414 54.93l0.94141 3-2.9805-1.0195c-0.14062-0.050782-15.168-5.0781-24.848 3.4609-9 7.9297-10.891 24.738-5.6328 49.961 9.3828 45.039 48.141 71.598 48.531 71.859l0.94141 0.62891-0.29297 1.1016-87.07 324.84-1.8281-1.1406c-2.0391-1.2812-204.52-127.27-289.33-155.01zm241.63 351.4c-79.879 0.007812-155.24-25.59-225.24-76.672-58.047-42.359-88.078-89.07-89.27-138.83-1.8672-78.883 70.801-138.34 71.531-138.93l0.66797-0.54297 0.82031 0.26953c80.391 25.922 268.45 141.72 289.05 154.48l85.672-319.62c-6.0898-4.4414-40.102-30.852-48.93-73.191-5.5117-26.441-3.2734-44.27 6.6602-53.012 8.4766-7.457 19.957-6.0195 25.199-4.8281-2.1094-8.5703-6.9805-35.129 7.6484-55.012 10.992-14.938 30.449-22.508 57.832-22.508 45.449 0 83.82 25.719 102.64 68.809 23.23 53.172 11.023 117.03-31.09 162.91 13.211 104.66-7.3086 436.69-117.63 473.46-46.43 15.48-91.688 23.211-135.56 23.211" fill="#142532"/>
  <path d="m2524.8 1046.2c-143.68 106.44-139.75 415.93 106.48 415.93s302.8-292.81 196.32-392.64c-106.48-99.82-212.95-89.84-302.8-23.289" fill="#142532"/>
  <path d="m1605.4 1916.5h590.54v-38.719h-590.54z" fill="#ef353b"/>
  <path d="m1937.7 1916.5h-548.58l-66.379-442.78h548.58l66.379 442.78" fill="#ef353b"/>
  <path d="m1911.9 1916.5h-548.58l-66.379-442.78h548.58l66.383 442.78" fill="#5d959d"/>
  <path d="m3476.4 1292.4 6.6602 166.37 46.578-6.6523-12.84-123.31c-2.1602-20.691-19.602-36.41-40.398-36.41" fill="#142532"/>
 </g>
 <g fill="#ecf8e9">
  <path d="m2792.8 526.13-53.941 83.223 49.891-6.1602zm-109.68 134.71 2.0703-41.852 100.72-148.68 57.008-7.0273-6.9688 134.09 24.352-3.0117-2.3008 44.902-24.34 3-2.0703 39.438-51.07 6.3125 2.3594-39.48-99.762 12.309"/>
  <path d="m2984.4 605c-1.2305 19.18 0 34.629 3.6992 46.359 3.6914 11.719 12.238 19.16 25.629 22.312 9.3203 2.1875 16.539 1.1289 21.66-3.2031 5.1094-4.3281 8.8125-11.348 11.09-21.059 1.6016-6.7891 2.75-16.449 3.4414-29 1.2383-19.172 0-34.621-3.6914-46.352-3.6992-11.73-12.238-19.168-25.641-22.32-9.3203-2.1875-16.527-1.1172-21.648 3.2109-5.1094 4.332-8.8086 11.34-11.102 21.051-1.5977 6.8008-2.7383 16.461-3.4375 29zm114.45 26.922c-0.78125 12.93-2.3906 24.539-4.8086 34.828-5.25 22.32-14.641 38.5-28.172 48.531-13.52 10.039-31.828 12.34-54.941 6.8984-28.727-6.75-49.027-21.52-60.887-44.281-11.852-22.758-16.801-50.918-14.852-84.469 0.85938-14.141 2.3711-25.77 4.5195-34.898 5.2422-22.32 14.73-38.48 28.449-48.473 13.723-9.9883 32.133-12.258 55.23-6.8281 28.742 6.7578 48.992 21.508 60.742 44.25 11.77 22.738 16.668 50.891 14.719 84.441"/>
  <path d="m3247.5 594.73-43.168 89.281 48.73-12.312zm-92.07 147.3-3.1602-41.781 81.453-160.05 55.688-14.07 9.7695 133.92 23.781-6.0195 3.3008 44.84-23.781 6.0078 2.8594 39.391-49.891 12.602-2.5664-39.461-97.453 24.621"/>
  <path d="m2519.8 1383.9s-73.199-63.219-53.238-166.37l33.281-6.6484s-19.973 73.199 19.957 173.02"/>
  <path d="m2469.9 1190.9s19.973-93.16 116.46-156.38c0 0-66.551 59.891-86.508 149.73l-29.953 6.6523"/>
  <path d="m2759.4 1077.8s76.531 106.48 23.289 236.25c0 0 99.82-113.13-23.289-236.25"/>
 </g>
 <g>
  <path d="m2948.6 3031.7-2.8281-1.4375c0.39844-0.78125 40.848-78.262 133.66-83.762l0.1875 3.1719c-90.949 5.3867-130.62 81.27-131.02 82.027" fill="#142532"/>
  <path d="m1938.1 2864.9-0.67969-3.1094c1.9922-0.42969 198.6-45.129 221-210.24 11.68-86.062-33.41-140.39-73.289-170.82-43.371-33.082-90.148-45.902-90.621-46.02l0.82031-3.0703c0.48047 0.12109 47.793 13.07 91.652 46.5 40.59 30.938 86.48 86.219 74.59 173.84-11.871 87.488-72.039 140.74-120.42 170-52.328 31.641-102.55 42.809-103.05 42.918" fill="#142532"/>
  <path d="m2195.9 2720.1c-22.727-21.969 6.8633-79.859 43.941-51.34 37.07 28.52-2.3203 91.57-43.941 51.34" fill="#ecf8e9"/>
  <path d="m2219.8 2665.8c-8.7695 0-14.949 5.6289-17.859 9.0078-9.8984 11.473-13.461 31.48-2.7305 41.852 10.359 10.02 21.461 13.781 31.25 10.57 9.543-3.1211 16.961-12.469 18.902-23.801 2.0586-11.969-2.4805-23.23-12.449-30.891-6.4414-4.957-12.191-6.7383-17.113-6.7383zm3.5625 72.09c-8.1992 0-19.043-3.0195-30.793-14.371-14.77-14.27-10.816-39.938 2.1406-54.949 10.172-11.789 28.121-18.91 48.031-3.6016 12.859 9.8906 18.699 24.492 16.039 40.07-2.5391 14.781-12.488 27.051-25.348 31.262-2.5625 0.83984-5.9922 1.5898-10.07 1.5898" fill="#ef353b"/>
  <path d="m2644.1 1861c42.25 40.828 87.48 56.117 127.38 43.059 38.91-12.738 69.16-50.809 77.07-97.008 8.3594-48.781-10.129-94.672-50.73-125.9-73.031-56.18-124.08-12.23-142.63 9.2695-40.352 46.75-54.832 128.3-11.09 170.58zm98.41 85.789c-33.281 0-77.27-12.238-124.96-58.328-59.918-57.91-43.859-162.06 8.7305-223 41.238-47.781 114.08-76.703 194.83-14.594 52.191 40.152 75.922 99.434 65.09 162.63-10.27 59.98-50.637 109.77-102.84 126.86-10.387 3.3984-24.297 6.4297-40.848 6.4297" fill="#ef353b"/>
  <path d="m2298.6 3457.8c-22.73-21.969 6.8594-79.859 43.941-51.34 37.078 28.531-2.3125 91.57-43.941 51.34" fill="#ecf8e9"/>
  <path d="m2301.9 3454.4c10.371 10.02 21.469 13.77 31.25 10.578 9.5508-3.1289 16.969-12.469 18.91-23.809 2.0508-11.969-2.4922-23.23-12.449-30.891-17.91-13.777-30.422-3-34.98 2.2695-9.9023 11.473-13.461 31.48-2.7305 41.852zm24.148 21.23c-8.1992 0-19.039-3.0117-30.789-14.371-14.77-14.27-10.809-39.941 2.1484-54.949 10.16-11.781 28.121-18.91 48.023-3.6016 12.859 9.8906 18.707 24.5 16.039 40.082-2.5312 14.777-12.48 27.051-25.352 31.258-2.5586 0.83984-5.9883 1.582-10.07 1.582" fill="#ef353b"/>
  <path d="m3481.2 3126c-22.73-21.969 6.8594-79.848 43.941-51.328 37.066 28.52-2.3203 91.559-43.941 51.328" fill="#ecf8e9"/>
  <path d="m3505.1 3071.7c-8.7695 0-14.949 5.6172-17.859 9-9.9023 11.469-13.461 31.48-2.7305 41.848 10.359 10.02 21.461 13.781 31.25 10.57 9.5391-3.1172 16.961-12.457 18.91-23.801 2.0508-11.969-2.4922-23.227-12.449-30.887-6.4531-4.9609-12.191-6.7305-17.121-6.7305zm3.5586 72.09c-8.1992 0-19.039-3.0195-30.789-14.379-14.77-14.273-10.82-39.941 2.1406-54.953 10.168-11.777 28.121-18.91 48.027-3.5977 12.863 9.8984 18.711 24.5 16.043 40.078-2.5312 14.781-12.48 27.051-25.352 31.262-2.5586 0.83984-5.9883 1.5781-10.07 1.5898" fill="#ef353b"/>
  <path d="m2947.6 3032.6c-22.742-21.969 6.8594-79.859 43.93-51.34 37.078 28.52-2.3086 91.57-43.93 51.34" fill="#ecf8e9"/>
  <path d="m2971.5 2978.3c-8.7578 0-14.938 5.6289-17.848 9.0078-9.9102 11.473-13.461 31.48-2.7422 41.852 10.371 10.02 21.461 13.781 31.262 10.57 9.5391-3.1211 16.961-12.461 18.898-23.801 2.0508-11.969-2.4805-23.23-12.449-30.891-6.4414-4.9609-12.191-6.7383-17.121-6.7383zm3.5703 72.09c-8.2109 0-19.051-3.0117-30.789-14.371-14.77-14.27-10.82-39.941 2.1406-54.949 10.168-11.781 28.117-18.91 48.027-3.6016 12.863 9.8906 18.703 24.5 16.043 40.07-2.543 14.781-12.492 27.051-25.352 31.27-2.5586 0.83984-5.9883 1.582-10.07 1.582" fill="#ef353b"/>
 </g>
 <g fill="#142532">
  <path d="m3036.8 3262.9-3.1289-0.61328c0.22656-1.1875 21.898-120.58-67.66-206.7-89.383-85.938-254.68-0.60938-256.35 0.26172l-1.4805-2.8203c1.6797-0.87891 169-87.27 260.04 0.25781 90.832 87.352 68.812 208.39 68.582 209.61"/>
  <path d="m3301.8 3258.6-2.3203-2.1797c0.28125-0.30078 28.23-30.48 45.203-77.488 15.629-43.281 24.879-110.15-19.812-182.9l2.7109-1.6602c45.379 73.871 35.949 141.79 20.051 185.76-17.211 47.59-45.551 78.16-45.832 78.469"/>
  <path d="m2145.9 3274.6c-37.391 0-61.129-10.438-61.41-10.559l1.3008-2.9102c0.32812 0.14844 33.891 14.852 84.09 8.8516 46.359-5.5625 116.81-30.434 189.21-117.37l2.4492 2.0391c-73.152 87.84-144.5 112.93-191.48 118.51-8.5508 1.0195-16.641 1.4375-24.16 1.4375"/>
  <path d="m2749.8 2178.2c-69.742 0-105.6-8.293-106.32-8.4609l0.75-3.1016c1.4688 0.35938 150.07 34.629 435.28-38.008l0.77734 3.0781c-146.57 37.332-257.23 46.492-330.49 46.492"/>
  <path d="m3061.9 2923.7-3.168-0.25c0.32812-4.0312 32.539-404.48 38.758-526.64 5.7422-112.73-38.23-238.55-38.668-239.81l3-1.0586c0.44922 1.2578 44.617 127.66 38.848 241.03-6.2188 122.2-38.438 522.7-38.77 526.73"/>
 </g>
 <g>
  <path d="m1638.8 1675.6v0.66016c0 30.348-24.59 54.938-54.969 54.938-30.352 0-54.941-24.59-54.941-54.938 0-27.422 20.102-50.184 46.391-54.301 0.35938 30.039 24.848 54.301 54.961 54.301 2.9297 0 5.7891-0.23047 8.5586-0.66016" fill="#ecf8e9"/>
  <path d="m2548.3 2599.1c13.578-22.488 89.109-161.86 32.07-395.2 0 0 110.04 140.16 82.141 320.47l-114.21 74.73" fill="#b2c1b0"/>
  <path d="m2546.3 2602.3s0.73047-1.0781 2.0312-3.2188l114.21-74.73c-0.10938 0.67969-0.22266 1.3594-0.33203 2.043l-115.91 75.906" fill="#141e25"/>
  <path d="m3361.2 3247.8c12.48-12.391 82.98-79.961 135.84-79.961l-47.969 64.371-0.03125-0.19141-1.5977 0.35938c-0.65234 0.15234-34.133 7.6016-86.242 15.422" fill="#b2c1b0"/>
  <path d="m3359.3 3249.8s0.66016-0.69141 1.918-1.9414c52.109-7.8203 85.59-15.27 86.242-15.422l1.5977-0.35938 0.03125 0.19141-1.2891 1.7188-88.5 15.812" fill="#141e25"/>
 </g>
 <g fill="#142532">
  <path d="m3588.1 1217.3c-49.883-62.098-121.49-44.098-148.35-25.648-12.098 8.3008-17.289 17.441-13.57 23.852l-2.75 1.5977c-4.6406-7.9805 0.92188-18.738 14.52-28.078 27.652-18.992 101.35-37.562 152.63 26.277l-2.4805 2"/>
  <path d="m3581.6 1277.6c-0.097656-2.1562-3.0898-53.027-59.289-59.688-67.91-8.0312-82.73 28.168-82.82 28.551l-3.1602-0.26172c0-1.0898 2.832-7.8711 10.852-14.988 11.5-10.23 33.938-21.383 75.5-16.461 58.93 6.9805 62.07 62.148 62.098 62.699l-3.1797 0.14844"/>
  <path d="m3515.4 1329.4c-9.8398-23.379-23.84-31.379-36.191-38.441-6.4492-3.6797-12.531-7.1602-17.23-12.418-5-5.5898-4.7773-10.199-3.7188-13.082 2.4688-6.6875 12.328-11.816 26.371-13.738 23.707-3.2383 56.328 3.1484 71.949 24.82l-2.582 1.8711c-14.859-20.613-46.16-26.652-68.938-23.543-12.672 1.7305-21.793 6.2109-23.812 11.691-1.1094 3-0.058594 6.3203 3.1016 9.8594 4.3594 4.8711 10.219 8.2305 16.441 11.781 12.789 7.3086 27.277 15.598 37.539 39.969l-2.9297 1.2305"/>
  <path d="m3459 1273.9c-20.32-15.48-47.078-83.18-48.211-86.051l2.9727-1.1602c0.26953 0.69141 27.559 69.73 47.16 84.68l-1.9219 2.5312"/>
 </g>
 <g>
  <path d="m2250.6 2154.9c-101.77-0.41016-206.03-75.629-256.23-111.85-19.383-13.992-28.113-20.172-31.961-20.172-19.859 0-315.49-20.949-344.87-71.602-3-5.168-2.9297-10.348 0.21094-15.84 2.8008-4.8984 15.828-11.879 62.051-17.289 4.6875-0.55078 9.5977-1.0781 14.719-1.5703h367.49l188.59 238.32" fill="#b2c1b0"/>
  <path d="m2251.5 2156.5c-135.81 0-274.73-132.03-289.01-132.03-16.609 0-382.96-25.238-346.04-89.82 4.6094-8.0781 27.848-13.93 63.168-18.07h14.98c-5.1211 0.49219-10.031 1.0195-14.719 1.5703-46.223 5.4102-59.25 12.391-62.051 17.289-3.1406 5.4922-3.2109 10.672-0.21094 15.84 29.379 50.652 325.01 71.602 344.87 71.602 3.8477 0 12.578 6.1797 31.961 20.172 50.199 36.219 154.46 111.44 256.23 111.85l1.2617 1.5898c-0.14062 0.011719-0.30078 0.011719-0.44141 0.011719" fill="#141e25"/>
  <path d="m2062.1 1916.5h-124.32l124.31-0.007812 0.007813 0.007812" fill="#bd2c2f"/>
  <path d="m1937.7 1916.5h-25.816l25.816-0.007812v0.007812" fill="#bd2c2f"/>
  <path d="m1911.9 1916.5h-232.33c0.019531 0 0.050781-0.007812 0.070312-0.007812h232.26v0.007812" fill="#46717a"/>
  <path d="m1147.6 920.4c0 97.863-79.332 177.19-177.2 177.19-97.859 0-177.2-79.328-177.2-177.19 0-97.867 79.336-177.2 177.2-177.2 97.863 0 177.2 79.332 177.2 177.2" fill="#5d959d"/>
  <path d="m970.41 1044c-164.92 0-340.2-31.25-340.2-89.168 0-44.891 101.37-67.25 161.79-76.582l2.4258 15.73c-102.45 15.82-148.3 41.961-148.3 60.852 0 13.238 23.969 33.25 91.246 49.699 62.152 15.188 144.91 23.559 233.04 23.559s170.89-8.3711 233.04-23.559c67.27-16.449 91.242-36.461 91.242-49.699 0-19.203-46.902-45.621-151.69-61.363l2.3711-15.738c49.68 7.4688 165.24 29.93 165.24 77.102 0 57.918-175.28 89.168-340.2 89.168" fill="#ecf8e9"/>
  <path d="m4525.8 1311.4c-51.879 81.598-160.08 105.7-241.68 53.828-81.598-51.871-105.7-160.08-53.828-241.68 51.867-81.598 160.08-105.7 241.68-53.828 81.598 51.879 105.7 160.08 53.828 241.68" fill="#5d959d"/>
  <path d="m4602.8 1442.8c-64.16 0-184.69-55.012-290.34-122.17-137.55-87.438-267.17-206.46-236.43-254.81 23.832-37.492 120.26-2.3906 175.61 21.871l-6.3906 14.566c-93.75-41.078-145.8-43.617-155.79-27.898-7 11.012 2.3906 40.352 49.73 89.68 43.762 45.609 108.33 96.449 181.81 143.16 73.48 46.711 146.92 83.602 206.79 103.87 64.75 21.938 95.32 17.98 102.32 6.9688 10.148-15.98-14.961-62.82-93.953-131.45l10.441-12.02c37.488 32.578 121.98 112.6 96.941 152-7.1328 11.219-21.371 16.23-40.742 16.23" fill="#ecf8e9"/>
  <path d="m956.57 3201.6c16.973 38.43-0.42578 83.34-38.859 100.31-38.434 16.98-83.348-0.42969-100.32-38.863-16.973-38.43 0.42578-83.34 38.863-100.32 38.43-16.961 83.344 0.42969 100.31 38.867" fill="#5d959d"/>
  <path d="m785.62 3318.1c-15.715 0-25.422-4.0312-28.965-12.051-8.2383-18.66 23.387-43.91 51.371-61.801l6.8594 10.719c-37.988 24.301-48.73 41.07-46.582 45.941 1.3164 2.9805 11.637 7.2422 41.234 1.9805 26.82-4.7695 60.535-15.762 94.934-30.949 34.402-15.191 65.238-32.699 86.832-49.301 23.828-18.332 27.629-28.82 26.309-31.809-2.1797-4.9609-22.234-8.3008-66.734 3.8594l-3.3555-12.289c32.688-8.9219 73.402-15.602 81.742 3.2773 5.207 11.801-4.9531 27.629-30.203 47.051-22.375 17.211-54.141 35.27-89.449 50.859-35.301 15.582-70.051 26.891-97.844 31.832-10.031 1.7891-18.754 2.6797-26.148 2.6797" fill="#ecf8e9"/>
 </g>
 <g fill="#5d959d">
  <path d="m1411.6 2415.3 16.188 49.82h52.383l-42.383 30.793 16.191 49.816-42.379-30.789-42.383 30.789 16.191-49.816-42.379-30.793h52.379l16.191-49.82"/>
  <path d="m3988.1 1985.2 17.352 53.379h56.121l-45.41 32.992 17.348 53.367-45.41-32.988-45.398 32.988 17.34-53.367-45.41-32.992h56.129l17.34-53.379"/>
  <path d="m2188.2 1190.3 15.043 46.258h48.637l-39.359 28.59 15.039 46.262-39.359-28.59-39.348 28.59 15.027-46.262-39.348-28.59h48.641l15.027-46.258"/>
 </g>
 <path d="m4143 472.11 10.41 32.031h33.672l-27.242 19.789 10.41 32.031-27.25-19.801-27.238 19.801 10.41-32.031-27.25-19.789h33.68l10.398-32.031" fill="#ecf8e9"/>
</svg>
