<?xml version="1.0" encoding="UTF-8"?>
<svg width="176.49" height="215.97" style="isolation:isolate" version="1.1" viewBox="0 0 176.49 215.97" xmlns="http://www.w3.org/2000/svg">
 <defs>
  <clipPath id="clipPath342">
   <rect width="479.15" height="295.94"/>
  </clipPath>
  <clipPath id="clipPath357">
   <rect width="479.15" height="295.94"/>
  </clipPath>
 </defs>
 <path transform="translate(0,-79.959)" d="m136.22 223.93c-20.637-13.75-86.844-0.93-96.742 33.147-4.683 16.12 17.639 34.719 38.134 37.971 29.66 4.706 84.868-9.412 98.876-41.026q-19.039-15.444-25.094-20.833l-44.751 19.547 6.687 7.201 30.863-13.631q9.496 5.746 13.374 10.288c-6.933 18.495-42.795 33.099-69.245 29.367-14.985-2.114-37.207-16.562-32.861-31.939 5.924-20.961 52.982-36.702 69.957-22.891 3.895-2.375 7.113-4.515 10.802-7.201z" clip-path="url(#clipPath342)" fill="#6d7479"/>
 <path transform="translate(0,-79.959)" d="m12.298 241.58-12.298-125.17 28.109-8.565 45.017 91.573 29.646-113.53 20.423-5.929 6.588 114.85-15.152 6.149-5.929-96.404-28.329 109.58-14.274 6.149-45.457-90.036 9.223 103.65-17.567 7.686z" clip-path="url(#clipPath357)" fill="#0b0b0b"/>
</svg>
