<svg xmlns="http://www.w3.org/2000/svg" style="isolation:isolate" version="1.1" viewBox="0 0 479.15 295.94"><defs><clipPath id="_clipPath_wrOWJZBJ343rdj4Zf0incualg2AWuvgL"><rect width="479.15" height="295.94"/></clipPath></defs><g clip-path="url(#_clipPath_wrOWJZBJ343rdj4Zf0incualg2AWuvgL)"><path d="m136.22 223.93c-20.637-13.75-86.844-0.93-96.742 33.147-4.683 16.12 17.639 34.719 38.134 37.971 29.66 4.706 84.868-9.412 98.876-41.026q-19.039-15.444-25.094-20.833l-44.751 19.547 6.687 7.201 30.863-13.631q9.496 5.746 13.374 10.288c-6.933 18.495-42.795 33.099-69.245 29.367-14.985-2.114-37.207-16.562-32.861-31.939 5.924-20.961 52.982-36.702 69.957-22.891 3.895-2.375 7.113-4.515 10.802-7.201z" fill="#6d7479"/><g fill="#0b0b0b"><path d="m140.73 191.13 35.878-126.92 15.625-4.436 42.244 94.518-13.503 5.594-36.264-85.452-28.163 109.95-15.817 6.751z"/><path d="m241.42 45.689 2.7 104.93 55.747-21.411v-11.959l-43.787 16.589-1.543-92.783-13.117 4.63z"/><path d="m309.64 25.493 0.659 99.258 10.979-4.611 0.22-99.039-11.858 4.392z"/><path d="m12.298 241.58-12.298-125.17 28.109-8.565 45.017 91.573 29.646-113.53 20.423-5.929 6.588 114.85-15.152 6.149-5.929-96.404-28.329 109.58-14.274 6.149-45.457-90.036 9.223 103.65-17.567 7.686z"/></g><g fill="#6d7479"><path d="m208.91 251.57-13.365 6.372-65.426-52.994c39.441-15.621 62.162-27.467 80.176-22.306 25.255 7.235 19.658 20.477 4.831 28.056 14.963-2.255 54.961 7.573 64.339 8.081-6.648 3.178-8.696 4.816-13.747 7.546-29.93-4.797-53.805-18.547-87.579 1.157q14.683 11.266 30.771 24.088zm-38.263-29.173c14.617-7.887 56.469-19.77 39.854-30.811-13.967-9.282-40.695 5.679-60.885 13.46l21.031 17.351z"/><path d="m293.8 212.13-12.159 6.144-36.214-58.83 11.505-4.707 101.84 27.847-10.72 5.229-91.384-27.193 37.129 51.51z"/><path d="m291.76 141.36 70.986 39.93 10.03-5.016-31.056-17.36c14.66-7.137 49.865-14.368 23.148-29.706-20.833-11.959-45.909 1.35-73.108 12.152zm17.168 0.193 25.848 13.889c12.152-6.366 40.724-13.552 21.026-22.762-14.853-6.944-25.463 0-46.874 8.873z" fill-rule="evenodd"/><path d="m350.79 118.02 71.95 36.072 9.066-4.63-36.264-17.553 34.528-14.082 35.879 16.589 8.487-3.858-73.3-32.792-7.909 3.472 28.935 13.503-34.529 13.31-27.969-13.889-8.874 3.858z"/></g><path d="m345.93 14.508-12.208 3.184v97.838l11.146-3.538-0.354-73.954 36.8 59.623 10.615-3.892 2.123-93.769-10.084 3.185-1.592 72.007-36.446-60.684z" fill="#0b0b0b"/><path d="m479.15 28.661-4.715 101.58-8.487 4.179 4.533-102.57 8.669-3.185z" fill="#0b0b0b"/><path d="m479.15 28.661-85.1-28.661-10.084 3.185 86.515 28.661 8.669-3.185z" fill="#6d7479"/></g></svg>